<svg id="expandedicons" xmlns="http://www.w3.org/2000/svg" viewBox="0 0 64 64"><path d="M55.2964,63H7.4814a1,1,0,0,1-1-1V31.4219a1,1,0,0,1,2,0V61h45.815V31.4219a1,1,0,0,1,2,0V62A1,1,0,0,1,55.2964,63Z"/><path d="M49.707,63H38.8154a1,1,0,0,1-1-1V44.3086a1,1,0,0,1,1-1H49.707a1,1,0,0,1,1,1V62A1,1,0,0,1,49.707,63Zm-9.8916-2H48.707V45.3086H39.8154Z"/><path d="M33.14,53.3018H13.1528a1,1,0,0,1-1-1V39.1934a1,1,0,0,1,1-1H33.14a1,1,0,0,1,1,1V52.3018A1,1,0,0,1,33.14,53.3018Zm-18.9873-2H32.14V40.1934H14.1528Z"/><path d="M7.4814,32.4219a5.7254,5.7254,0,0,1-5.7192-5.7188v-3.38a1,1,0,0,1,1-1h9.4385a1,1,0,0,1,1,1v3.38A5.7254,5.7254,0,0,1,7.4814,32.4219ZM3.7622,24.3232v2.38a3.7193,3.7193,0,0,0,7.4385,0v-2.38Z"/><path d="M17.2549,32.4219a6.0608,6.0608,0,0,1-6.0542-6.0537v-3.045a1,1,0,0,1,1-1H21.64a1,1,0,0,1,1,1v3.7149A5.39,5.39,0,0,1,17.2549,32.4219Zm-4.0542-8.0987v2.045a4.0585,4.0585,0,0,0,4.0542,4.0537A3.3879,3.3879,0,0,0,20.64,27.0381V24.3232Z"/><path d="M26.3589,32.4219A5.7255,5.7255,0,0,1,20.64,26.7031v-3.38a1,1,0,0,1,1-1h9.439a1,1,0,0,1,1,1v3.38A5.7258,5.7258,0,0,1,26.3589,32.4219ZM22.64,24.3232v2.38a3.72,3.72,0,0,0,7.439,0v-2.38Z"/><path d="M35.7979,32.4219a5.7254,5.7254,0,0,1-5.7193-5.7188v-3.38a1,1,0,0,1,1-1h9.4385a1,1,0,0,1,1,1v3.38A5.7254,5.7254,0,0,1,35.7979,32.4219Zm-3.7193-8.0987v2.38a3.7193,3.7193,0,0,0,7.4385,0v-2.38Z"/><path d="M45.2368,32.4219a5.7258,5.7258,0,0,1-5.72-5.7188v-3.38a1,1,0,0,1,1-1h9.439a1,1,0,0,1,1,1v3.38A5.7255,5.7255,0,0,1,45.2368,32.4219Zm-3.72-8.0987v2.38a3.72,3.72,0,0,0,7.439,0v-2.38Z"/><path d="M54.6753,32.4219a5.7254,5.7254,0,0,1-5.7192-5.7188v-3.38a1,1,0,0,1,1-1H59.395a1,1,0,0,1,1,1v3.38A5.7258,5.7258,0,0,1,54.6753,32.4219Zm-3.7192-8.0987v2.38a3.7195,3.7195,0,0,0,7.4389,0v-2.38Z"/><path d="M59.395,24.3232H2.7622a1,1,0,0,1-.9194-1.3925L5.9409,13.334a1,1,0,0,1,.92-.6074h48.436a1,1,0,0,1,.9194.6074l4.0987,9.5967a1,1,0,0,1-.9195,1.3925Zm-55.1186-2H57.88l-3.2442-7.5966H7.5205Z"/><path d="M12.2017,24.3232a.9589.9589,0,0,1-.1958-.02,1,1,0,0,1-.7862-1.1748l1.9038-9.5967a1,1,0,0,1,1.9619.3887l-1.9038,9.5967A1,1,0,0,1,12.2017,24.3232Z"/><path d="M21.6411,24.3232a.9312.9312,0,0,1-.1465-.0107,1,1,0,0,1-.8442-1.1348l1.4082-9.5966a1,1,0,0,1,1.9785.291l-1.4082,9.5967A1,1,0,0,1,21.6411,24.3232Z"/><path d="M31.0776,24.4072a1,1,0,0,1-.998-.958l-.4082-9.6806a1,1,0,1,1,1.998-.084l.4082,9.6806a1,1,0,0,1-.957,1.041C31.1064,24.4072,31.0923,24.4072,31.0776,24.4072Z"/><path d="M40.5156,24.3232a1,1,0,0,1-.9907-.874L38.31,13.8525a1,1,0,0,1,1.9843-.2519l1.2154,9.5967a1.0007,1.0007,0,0,1-.8667,1.1181A1.1113,1.1113,0,0,1,40.5156,24.3232Z"/><path d="M49.9556,24.3232a1,1,0,0,1-.9639-.7363L46.3643,13.99a1,1,0,1,1,1.9287-.5273L50.92,23.06a1,1,0,0,1-.7,1.2285A1.0338,1.0338,0,0,1,49.9556,24.3232Z"/><path d="M55.2964,14.7266H6.86a1,1,0,0,1-1-1V2a1,1,0,0,1,1-1h48.436a1,1,0,0,1,1,1V13.7266A1,1,0,0,1,55.2964,14.7266Zm-47.436-2h46.436V3H7.86Z"/><path d="M17.0005,11.2734H14.1416a1,1,0,0,1-1-1V5.2861a1,1,0,0,1,1-1h2.8589a1,1,0,0,1,0,2H15.1416V9.2734h1.8589a1,1,0,0,1,0,2Z"/><path d="M22.4141,11.2734h-.5655a2.7133,2.7133,0,0,1-2.71-2.71V6.9971a2.7136,2.7136,0,0,1,2.71-2.711h.5655a2.7135,2.7135,0,0,1,2.71,2.711V8.5635A2.7132,2.7132,0,0,1,22.4141,11.2734Zm-.5655-4.9873a.7119.7119,0,0,0-.71.711V8.5635a.7109.7109,0,0,0,.71.71h.5655a.71.71,0,0,0,.71-.71V6.9971a.7114.7114,0,0,0-.71-.711Z"/><path d="M27.1909,11.2734a1,1,0,0,1-1-1V5.2861a1,1,0,0,1,1-1h3.0015a1,1,0,0,1,0,2H28.1909v3.9873A1,1,0,0,1,27.1909,11.2734Z"/><path d="M29.4624,8.78H27.1909a1,1,0,0,1,0-2h2.2715a1,1,0,0,1,0,2Z"/><path d="M33.0742,11.2734a1,1,0,0,1-1-1V5.2861a1,1,0,0,1,1-1h3.0015a1,1,0,0,1,0,2H34.0742v3.9873A1,1,0,0,1,33.0742,11.2734Z"/><path d="M35.2827,8.78H33.0742a1,1,0,0,1,0-2h2.2085a1,1,0,0,1,0,2Z"/><path d="M42.0718,11.2734H39.07a1,1,0,0,1-1-1V5.2861a1,1,0,0,1,1-1h3.0015a1,1,0,0,1,0,2H40.07V9.2734h2.0015a1,1,0,0,1,0,2Z"/><path d="M41.3418,8.78H39.07a1,1,0,0,1,0-2h2.2715a1,1,0,0,1,0,2Z"/><path d="M48.0156,11.2734H45.0137a1,1,0,0,1-1-1V5.2861a1,1,0,0,1,1-1h3.0019a1,1,0,0,1,0,2H46.0137V9.2734h2.0019a1,1,0,0,1,0,2Z"/><path d="M47.293,8.78H45.0215a1,1,0,0,1,0-2H47.293a1,1,0,0,1,0,2Z"/></svg>